<?xml version="1.0" encoding="utf-8"?>
<svg viewBox="153.816 151.73 192.367 196.541" xmlns="http://www.w3.org/2000/svg">
  <path d="M 252.09 176.821 Q 272.321 176.463 290.071 186.301 Q 307.932 196.2 318.479 213.757 Q 329.091 231.422 329.447 252.087 Q 329.804 272.878 319.686 291.114 Q 309.508 309.46 291.465 320.287 Q 273.315 331.179 252.09 331.535 Q 230.739 331.892 212.018 321.494 Q 193.187 311.035 182.079 292.508 Q 170.907 273.873 170.552 252.087 Q 170.194 230.176 180.872 210.969 Q 191.611 191.653 210.624 180.266 Q 229.744 168.814 252.09 168.458 Q 274.561 168.1 294.253 179.059 Q 314.054 190.078 325.722 209.576 Q 337.454 229.181 337.81 252.087 Q 338.167 275.119 326.929 295.295 Q 315.63 315.582 295.647 327.53 Q 275.556 339.542 252.09 339.898 Q 228.498 340.255 207.836 328.737 Q 187.065 317.157 174.837 296.689 Q 162.544 276.113 162.189 252.087 Q 161.831 227.935 173.63 206.788 Q 185.489 185.531 206.442 173.023 Q 227.503 160.451 252.09 160.095 Q 276.802 159.737 298.434 171.816 Q 320.176 183.956 332.965 205.394 Q 345.817 226.94 346.173 252.087 Q 346.53 277.359 334.172 299.477 Q 321.752 321.704 299.828 334.772 Q 277.797 347.905 252.09 348.261 Q 226.257 348.618 203.655 335.979 Q 180.943 323.279 167.594 300.871 Q 154.182 278.354 153.826 252.087 Q 153.468 225.694 166.387 202.606 Q 179.367 179.409 202.261 165.781 Q 225.263 152.088 252.09 151.732 Q 252.407 151.728 252.09 151.732" style="stroke: rgb(0, 0, 0); fill: none;"/>
</svg>